<svg width="24" height="24" viewBox="0 0 24 24" fill="none" xmlns="http://www.w3.org/2000/svg">
<g id="Icon/Security">
<path id="Security" fill-rule="evenodd" clip-rule="evenodd" d="M12 2.95996L4 5.24596V12.912C4 15.168 5.096 17.297 6.932 18.608L10.838 21.399C11.186 21.646 11.593 21.77 12 21.77C12.407 21.77 12.814 21.646 13.162 21.398L17.068 18.608C18.904 17.297 20 15.168 20 12.912V5.24596L12 2.95996ZM18 12.912C18 14.523 17.217 16.044 15.906 16.981L12 19.771L8.094 16.981C6.783 16.044 6 14.523 6 12.912V6.75396L12 5.03996L18 6.75396V12.912Z" fill="white"/>
</g>
</svg>
